# xmcd
#
# Track frame offsets: 
#        150
#        25554
#        37787
#        57546
#        74910
#        90799
#        109676
#        122661
#        137581
#        154043
#        174794
#
# Disc length: 2501 seconds
#
# Revision: 0
# Processed by: cddbd v1.5.2PL0 Copyright (c) Steve Scherf et al.
# Submitted via: ExactAudioCopy v0.95b4
#
DISCID=8109c30b
DTITLE=Totimoshi - Milagrosa
DYEAR=2008
DGENRE=Rock and Roll
TTITLE0=Sound the Horn
TTITLE1=Fall and Bound
TTITLE2=El Emplazado
TTITLE3=Last Refrain
TTITLE4=Seeing Eye
TTITLE5=Milagroso
TTITLE6=Forever in Bone (Los Dos)
TTITLE7=The Whisper
TTITLE8=Gnat
TTITLE9=Little Bee
TTITLE10=Dear
EXTD=
EXTT0=
EXTT1=
EXTT2=
EXTT3=
EXTT4=
EXTT5=
EXTT6=
EXTT7=
EXTT8=
EXTT9=
EXTT10=
PLAYORDER=
